<svg xmlns="http://www.w3.org/2000/svg" xmlns:xlink="http://www.w3.org/1999/xlink" viewBox="0 0 430 430" width="430" height="430" preserveAspectRatio="xMidYMid meet" style="width: 100%; height: 100%; transform: translate3d(0px, 0px, 0px); content-visibility: visible;">
  <defs>
    <clipPath id="__lottie_element_665">
      <rect width="430" height="430" x="0" y="0"/>
    </clipPath>
    <clipPath id="__lottie_element_667">
      <path d="M0,0 L430,0 L430,430 L0,430z"/>
    </clipPath>
    <g id="__lottie_element_683">
      <g clip-path="url(#__lottie_element_684)" transform="matrix(1,0,0,1,0,0)" opacity="1" style="display: block;">
        <g transform="matrix(1,0,0,1,214.5,215.5)" opacity="1" style="display: none;">
          <g opacity="1" transform="matrix(1,0,0,1,0,0)">
            <path fill="rgb(255,0,0)" fill-opacity="1" d=" M-86.06300354003906,121.19700622558594 C-85.33100891113281,121.92900848388672 -85.33100891113281,123.11700439453125 -86.06300354003906,123.84900665283203 C-86.06300354003906,123.84900665283203 -90.2555160522461,128.04151916503906 -90.2555160522461,128.04151916503906 C-90.98751831054688,128.7735137939453 -92.1755142211914,128.7735137939453 -92.90751647949219,128.04151916503906 C-92.90751647949219,128.04151916503906 -127.82051849365234,93.1285171508789 -127.82051849365234,93.1285171508789 C-128.55252075195312,92.39651489257812 -128.55252075195312,91.2085189819336 -127.82051849365234,90.47651672363281 C-127.82051849365234,90.47651672363281 -123.62800598144531,86.28400421142578 -123.62800598144531,86.28400421142578 C-122.89600372314453,85.55200958251953 -121.7080078125,85.55200958251953 -120.97600555419922,86.28400421142578 C-120.97600555419922,86.28400421142578 -86.06300354003906,121.19700622558594 -86.06300354003906,121.19700622558594z"/>
          </g>
        </g>
        <g transform="matrix(1,0,0,1,214.5,215.5)" opacity="1" style="display: block;">
          <g opacity="1" transform="matrix(1,0,0,1,0,0)">
            <path fill="rgb(255,0,0)" fill-opacity="1" d=" M88.38800048828125,-53.25400161743164 C89.12000274658203,-52.52199935913086 89.12000274658203,-51.33399963378906 88.38800048828125,-50.60200119018555 C88.38800048828125,-50.60200119018555 -50.38100051879883,88.16699981689453 -50.38100051879883,88.16699981689453 C-51.112998962402344,88.89900207519531 -52.30099868774414,88.89900207519531 -53.03300094604492,88.16699981689453 C-53.03300094604492,88.16699981689453 -87.94599914550781,53.25400161743164 -87.94599914550781,53.25400161743164 C-88.6780014038086,52.52199935913086 -88.6780014038086,51.33399963378906 -87.94599914550781,50.60200119018555 C-87.94599914550781,50.60200119018555 50.823001861572266,-88.16699981689453 50.823001861572266,-88.16699981689453 C51.55500030517578,-88.89900207519531 52.74300003051758,-88.89900207519531 53.474998474121094,-88.16699981689453 C53.474998474121094,-88.16699981689453 88.38800048828125,-53.25400161743164 88.38800048828125,-53.25400161743164z"/>
          </g>
        </g>
        <g transform="matrix(1,0,0,1,214.5,215.5)" opacity="1" style="display: none;">
          <g opacity="1" transform="matrix(1,0,0,1,0,0)">
            <path fill="rgb(255,0,0)" fill-opacity="1" d=" M127.82051849365234,90.47651672363281 C128.55252075195312,91.2085189819336 128.55252075195312,92.39651489257812 127.82051849365234,93.1285171508789 C127.82051849365234,93.1285171508789 92.90751647949219,128.04151916503906 92.90751647949219,128.04151916503906 C92.1755142211914,128.7735137939453 90.98751831054688,128.7735137939453 90.2555160522461,128.04151916503906 C90.2555160522461,128.04151916503906 86.06300354003906,123.84900665283203 86.06300354003906,123.84900665283203 C85.33100891113281,123.11700439453125 85.33100891113281,121.92900848388672 86.06300354003906,121.19700622558594 C86.06300354003906,121.19700622558594 120.97600555419922,86.28400421142578 120.97600555419922,86.28400421142578 C121.7080078125,85.55200958251953 122.89600372314453,85.55200958251953 123.62800598144531,86.28400421142578 C123.62800598144531,86.28400421142578 127.82051849365234,90.47651672363281 127.82051849365234,90.47651672363281z"/>
          </g>
        </g>
        <g transform="matrix(1,0,0,1,214.5,215.5)" opacity="1" style="display: block;">
          <g opacity="1" transform="matrix(1,0,0,1,0,0)">
            <path fill="rgb(255,0,0)" fill-opacity="1" d=" M87.94599914550781,50.60200119018555 C88.6780014038086,51.33399963378906 88.6780014038086,52.52199935913086 87.94599914550781,53.25400161743164 C87.94599914550781,53.25400161743164 53.03300094604492,88.16699981689453 53.03300094604492,88.16699981689453 C52.30099868774414,88.89900207519531 51.112998962402344,88.89900207519531 50.38100051879883,88.16699981689453 C50.38100051879883,88.16699981689453 -88.38800048828125,-50.60200119018555 -88.38800048828125,-50.60200119018555 C-89.12000274658203,-51.33399963378906 -89.12000274658203,-52.52199935913086 -88.38800048828125,-53.25400161743164 C-88.38800048828125,-53.25400161743164 -53.474998474121094,-88.16699981689453 -53.474998474121094,-88.16699981689453 C-52.74300003051758,-88.89900207519531 -51.55500030517578,-88.89900207519531 -50.823001861572266,-88.16699981689453 C-50.823001861572266,-88.16699981689453 87.94599914550781,50.60200119018555 87.94599914550781,50.60200119018555z"/>
          </g>
        </g>
      </g>
    </g>
    <clipPath id="__lottie_element_684">
      <path d="M0,0 L430,0 L430,430 L0,430z"/>
    </clipPath>
    <mask id="__lottie_element_683_1" mask-type="alpha">
      <use xmlns:ns1="http://www.w3.org/1999/xlink" ns1:href="#__lottie_element_683"/>
    </mask>
  </defs>
  <g clip-path="url(#__lottie_element_665)">
    <g clip-path="url(#__lottie_element_667)" transform="matrix(1,0,0,1,0,0)" opacity="1" style="display: block;">
      <g transform="matrix(1,0,0,1,214.5,215.5)" opacity="1" style="display: block;">
        <g opacity="1" transform="matrix(1,0,0,1,0,0)">
          <path class="primary" fill="rgb(235,230,239)" fill-opacity="1" d=" M0,167.5 C92.50800323486328,167.5 167.5,92.50800323486328 167.5,0 C167.5,-92.50800323486328 92.50800323486328,-167.5 0,-167.5 C-92.50800323486328,-167.5 -167.5,-92.50800323486328 -167.5,0 C-167.5,92.50800323486328 -92.50800323486328,167.5 0,167.5z"/>
        </g>
        <g opacity="0.5" transform="matrix(1,0,0,1,-38.1879997253418,4.656000137329102)" style="mix-blend-mode: multiply;">
          <path class="primary" fill="rgb(235,230,239)" fill-opacity="1" d=" M63.92599868774414,161.03399658203125 C87.33899688720703,157.4149932861328 109.72000122070312,148.8820037841797 129.5989990234375,135.9949951171875 C90.84300231933594,149.79100036621094 48.37099838256836,148.87899780273438 10.244000434875488,133.4290008544922 C-27.882999420166016,117.97899627685547 -59.01100158691406,89.06900024414062 -77.23100280761719,52.185001373291016 C-95.45099639892578,15.300999641418457 -99.49400329589844,-26.988000869750977 -88.59400177001953,-66.65599822998047 C-77.69400024414062,-106.3239974975586 -52.60900115966797,-140.61000061035156 -18.10099983215332,-163.0050048828125 C-40.41600036621094,-155.0489959716797 -60.792999267578125,-142.45899963378906 -77.8949966430664,-126.06500244140625 C-94.99700164794922,-109.6709976196289 -108.43599700927734,-89.84300231933594 -117.3270034790039,-67.88400268554688 C-126.21800231933594,-45.92499923706055 -130.36099243164062,-22.332000732421875 -129.48399353027344,1.3420000076293945 C-128.60699462890625,25.016000747680664 -122.72899627685547,48.23699951171875 -112.23699951171875,69.47699737548828 C-101.74500274658203,90.71700286865234 -86.875,109.49600219726562 -68.60700225830078,124.58000183105469 C-50.3390007019043,139.66400146484375 -29.083999633789062,150.7100067138672 -6.242000102996826,156.9929962158203 C16.600000381469727,163.2760009765625 40.51300048828125,164.6529998779297 63.92599868774414,161.03399658203125z"/>
        </g>
      </g>
      <g transform="matrix(1.070540428161621,0,0,1.070540428161621,214.5,215.5)" opacity="1" style="display: none;">
        <g opacity="1" transform="matrix(1,0,0,1,0,0)">
          <path class="secondary" fill="rgb(242,76,0)" fill-opacity="1" d=" M-86.06300354003906,121.19700622558594 C-85.33100891113281,121.92900848388672 -85.33100891113281,123.11700439453125 -86.06300354003906,123.84900665283203 C-86.06300354003906,123.84900665283203 -90.2555160522461,128.04151916503906 -90.2555160522461,128.04151916503906 C-90.98751831054688,128.7735137939453 -92.1755142211914,128.7735137939453 -92.90751647949219,128.04151916503906 C-92.90751647949219,128.04151916503906 -127.82051849365234,93.1285171508789 -127.82051849365234,93.1285171508789 C-128.55252075195312,92.39651489257812 -128.55252075195312,91.2085189819336 -127.82051849365234,90.47651672363281 C-127.82051849365234,90.47651672363281 -123.62800598144531,86.28400421142578 -123.62800598144531,86.28400421142578 C-122.89600372314453,85.55200958251953 -121.7080078125,85.55200958251953 -120.97600555419922,86.28400421142578 C-120.97600555419922,86.28400421142578 -86.06300354003906,121.19700622558594 -86.06300354003906,121.19700622558594z"/>
        </g>
      </g>
      <g transform="matrix(1,0,0,1,214.5,215.5)" opacity="1" style="display: block;">
        <g opacity="1" transform="matrix(1,0,0,1,0,0)">
          <path class="secondary" fill="rgb(242,39,0)" fill-opacity="1" d=" M88.38800048828125,-53.25400161743164 C89.12000274658203,-52.52199935913086 89.12000274658203,-51.33399963378906 88.38800048828125,-50.60200119018555 C88.38800048828125,-50.60200119018555 -50.38100051879883,88.16699981689453 -50.38100051879883,88.16699981689453 C-51.112998962402344,88.89900207519531 -52.30099868774414,88.89900207519531 -53.03300094604492,88.16699981689453 C-53.03300094604492,88.16699981689453 -87.94599914550781,53.25400161743164 -87.94599914550781,53.25400161743164 C-88.6780014038086,52.52199935913086 -88.6780014038086,51.33399963378906 -87.94599914550781,50.60200119018555 C-87.94599914550781,50.60200119018555 50.823001861572266,-88.16699981689453 50.823001861572266,-88.16699981689453 C51.55500030517578,-88.89900207519531 52.74300003051758,-88.89900207519531 53.474998474121094,-88.16699981689453 C53.474998474121094,-88.16699981689453 88.38800048828125,-53.25400161743164 88.38800048828125,-53.25400161743164z"/>
        </g>
      </g>
      <g transform="matrix(1.070540428161621,0,0,1.070540428161621,214.5,215.5)" opacity="1" style="display: none;">
        <g opacity="1" transform="matrix(1,0,0,1,0,0)">
          <path class="secondary" fill="rgb(242,39,0)" fill-opacity="1" d=" M127.82051849365234,90.47651672363281 C128.55252075195312,91.2085189819336 128.55252075195312,92.39651489257812 127.82051849365234,93.1285171508789 C127.82051849365234,93.1285171508789 92.90751647949219,128.04151916503906 92.90751647949219,128.04151916503906 C92.1755142211914,128.7735137939453 90.98751831054688,128.7735137939453 90.2555160522461,128.04151916503906 C90.2555160522461,128.04151916503906 86.06300354003906,123.84900665283203 86.06300354003906,123.84900665283203 C85.33100891113281,123.11700439453125 85.33100891113281,121.92900848388672 86.06300354003906,121.19700622558594 C86.06300354003906,121.19700622558594 120.97600555419922,86.28400421142578 120.97600555419922,86.28400421142578 C121.7080078125,85.55200958251953 122.89600372314453,85.55200958251953 123.62800598144531,86.28400421142578 C123.62800598144531,86.28400421142578 127.82051849365234,90.47651672363281 127.82051849365234,90.47651672363281z"/>
        </g>
      </g>
      <g transform="matrix(1,0,0,1,214.5,215.5)" opacity="1" style="display: block;">
        <g opacity="1" transform="matrix(1,0,0,1,0,0)">
          <path class="secondary" fill="rgb(242,39,0)" fill-opacity="1" d=" M87.94599914550781,50.60200119018555 C88.6780014038086,51.33399963378906 88.6780014038086,52.52199935913086 87.94599914550781,53.25400161743164 C87.94599914550781,53.25400161743164 53.03300094604492,88.16699981689453 53.03300094604492,88.16699981689453 C52.30099868774414,88.89900207519531 51.112998962402344,88.89900207519531 50.38100051879883,88.16699981689453 C50.38100051879883,88.16699981689453 -88.38800048828125,-50.60200119018555 -88.38800048828125,-50.60200119018555 C-89.12000274658203,-51.33399963378906 -89.12000274658203,-52.52199935913086 -88.38800048828125,-53.25400161743164 C-88.38800048828125,-53.25400161743164 -53.474998474121094,-88.16699981689453 -53.474998474121094,-88.16699981689453 C-52.74300003051758,-88.89900207519531 -51.55500030517578,-88.89900207519531 -50.823001861572266,-88.16699981689453 C-50.823001861572266,-88.16699981689453 87.94599914550781,50.60200119018555 87.94599914550781,50.60200119018555z"/>
        </g>
      </g>
      <g mask="url(#__lottie_element_683_1)" style="mix-blend-mode: multiply; display: block;">
        <g transform="matrix(1,0,0,1,215,215)" opacity="0.5">
          <g opacity="1" transform="matrix(1,0,0,1,-93.5,-0.5)">
            <path class="secondary" fill="rgb(242,39,0)" fill-opacity="1" d=" M92.5,-169.5 C92.5,-169.5 92.5,169.5 92.5,169.5 C92.5,169.5 -79.5,169.5 -79.5,169.5 C-79.5,169.5 -79.5,-169.5 -79.5,-169.5 C-79.5,-169.5 92.5,-169.5 92.5,-169.5z"/>
          </g>
        </g>
      </g>
    </g>
  </g>
</svg>