<svg xmlns="http://www.w3.org/2000/svg" xmlns:xlink="http://www.w3.org/1999/xlink" viewBox="0 0 430 430" width="430" height="430" preserveAspectRatio="xMidYMid meet" style="width: 100%; height: 100%; transform: translate3d(0px, 0px, 0px); content-visibility: visible;"><defs><clipPath id="__lottie_element_329"><rect width="430" height="430" x="0" y="0"/></clipPath><clipPath id="__lottie_element_331"><path d="M0,0 L430,0 L430,430 L0,430z"/></clipPath><clipPath id="__lottie_element_355"><path d="M0,0 L430,0 L430,430 L0,430z"/></clipPath></defs><g clip-path="url(#__lottie_element_329)"><g clip-path="url(#__lottie_element_355)" transform="matrix(1,0,0,1,0,0)" opacity="1" style="display: block;"><g style="display: none;"><g><path class="quaternary"/></g><g style="mix-blend-mode: multiply;"><path class="quaternary"/></g></g><g style="display: none;"><g><path stroke-linecap="round" stroke-linejoin="round" fill-opacity="0" class="tertiary"/></g><g><g><path stroke-linecap="round" stroke-linejoin="round" fill-opacity="0" class="secondary"/></g><g><path stroke-linecap="round" stroke-linejoin="round" fill-opacity="0" class="secondary"/></g></g></g><g transform="matrix(0.9999899864196777,0,0,0.9999899864196777,-34.99848937988281,-34.999290466308594)" opacity="1" style="display: block;"><g opacity="1" transform="matrix(1,0,0,1,250,272.4800109863281)"><path class="secondary" fill="rgb(232,57,47)" fill-opacity="1" d=" M119.47000122070312,-153.1699981689453 C119.47000122070312,-153.1699981689453 117.48999786376953,-114.27999877929688 117.48999786376953,-114.27999877929688 C117.48999786376953,-114.27999877929688 116.31999969482422,-91.44999694824219 116.31999969482422,-91.44999694824219 C116.31999969482422,-91.44999694824219 104.22000122070312,145.67999267578125 104.22000122070312,145.67999267578125 C103.94999694824219,151 99.55999755859375,155.1699981689453 94.23999786376953,155.1699981689453 C94.23999786376953,155.1699981689453 -94.23999786376953,155.1699981689453 -94.23999786376953,155.1699981689453 C-99.55999755859375,155.1699981689453 -103.94999694824219,151 -104.22000122070312,145.67999267578125 C-104.22000122070312,145.67999267578125 -116.31999969482422,-91.44999694824219 -116.31999969482422,-91.44999694824219 C-116.31999969482422,-91.44999694824219 -117.48999786376953,-114.27999877929688 -117.48999786376953,-114.27999877929688 C-117.48999786376953,-114.27999877929688 -119.47000122070312,-153.1699981689453 -119.47000122070312,-153.1699981689453 C-119.47000122070312,-154.27000427246094 -118.56999969482422,-155.1699981689453 -117.47000122070312,-155.1699981689453 C-117.47000122070312,-155.1699981689453 117.47000122070312,-155.1699981689453 117.47000122070312,-155.1699981689453 C118.56999969482422,-155.1699981689453 119.47000122070312,-154.27000427246094 119.47000122070312,-153.1699981689453z"/></g><g opacity="1" transform="matrix(1,0,0,1,250,287.1470031738281)"><path stroke-linecap="round" stroke-linejoin="round" fill-opacity="0" class="tertiary" stroke="rgb(235,230,239)" stroke-opacity="1" stroke-width="7" d=" M-58.540000915527344,-77.9540023803711 C-58.540000915527344,-77.9540023803711 -58.540000915527344,77.9540023803711 -58.540000915527344,77.9540023803711 M0.12999999523162842,-77.9540023803711 C0.12999999523162842,-77.9540023803711 0.12999999523162842,77.9540023803711 0.12999999523162842,77.9540023803711 M58.540000915527344,-77.9540023803711 C58.540000915527344,-77.9540023803711 58.540000915527344,77.9540023803711 58.540000915527344,77.9540023803711"/></g><g opacity="0.6" transform="matrix(1,0,0,1,250,149.1699981689453)" style="mix-blend-mode: multiply;"><path class="secondary" fill="rgb(232,57,47)" fill-opacity="1" d=" M119.47000122070312,-29.860000610351562 C119.47000122070312,-29.860000610351562 116.32025909423828,31.855262756347656 116.32025909423828,31.855262756347656 C116.32025909423828,31.855262756347656 -116.32012939453125,31.85807991027832 -116.32012939453125,31.85807991027832 C-116.32012939453125,31.85807991027832 -119.47000122070312,-29.860000610351562 -119.47000122070312,-29.860000610351562 C-119.47000122070312,-30.959999084472656 -118.56999969482422,-31.860000610351562 -117.47000122070312,-31.860000610351562 C-117.47000122070312,-31.860000610351562 117.47000122070312,-31.860000610351562 117.47000122070312,-31.860000610351562 C118.56999969482422,-31.860000610351562 119.47000122070312,-30.959999084472656 119.47000122070312,-29.860000610351562z"/></g><g opacity="1" transform="matrix(1,0,0,1,250,272.4800109863281)"/></g><g transform="matrix(0.999987781047821,-0.002107513602823019,0.002107513602823019,0.999987781047821,-36.03204345703125,-34.5012321472168)" opacity="1" style="display: block;"><g opacity="1" transform="matrix(1,0,0,1,250,96.63999938964844)"><path stroke-linecap="round" stroke-linejoin="round" fill-opacity="0" class="secondary" stroke="rgb(232,57,47)" stroke-opacity="1" stroke-width="10" d=" M44.15599822998047,19.558000564575195 C44.15599822998047,-4.703000068664551 21.60300064086914,-22.288000106811523 0.41200000047683716,-22.288000106811523 C0.41200000047683716,-22.288000106811523 0.41200000047683716,-22.288000106811523 0.41200000047683716,-22.288000106811523 C-22.299999237060547,-22.288000106811523 -41.10499954223633,-5.421999931335449 -44.15599822998047,16.45199966430664 C-44.15599822998047,16.45199966430664 -44.15599822998047,22.288000106811523 -44.15599822998047,22.288000106811523 C-44.15599822998047,22.288000106811523 44.15599822998047,22.288000106811523 44.15599822998047,22.288000106811523 C44.15599822998047,22.288000106811523 44.15599822998047,19.558000564575195 44.15599822998047,19.558000564575195z"/></g><g opacity="1" transform="matrix(1,0,0,1,250,135.2480010986328)"><path class="secondary" fill="rgb(232,57,47)" fill-opacity="1" d=" M127.7030029296875,22.950000762939453 C127.7030029296875,22.950000762939453 -127.7030029296875,22.950000762939453 -127.7030029296875,22.950000762939453 C-133.2259979248047,22.950000762939453 -137.7030029296875,18.472999572753906 -137.7030029296875,12.949999809265137 C-137.7030029296875,12.949999809265137 -137.7030029296875,-12.949999809265137 -137.7030029296875,-12.949999809265137 C-137.7030029296875,-18.472999572753906 -133.2259979248047,-22.950000762939453 -127.7030029296875,-22.950000762939453 C-127.7030029296875,-22.950000762939453 127.7030029296875,-22.950000762939453 127.7030029296875,-22.950000762939453 C133.2259979248047,-22.950000762939453 137.7030029296875,-18.472999572753906 137.7030029296875,-12.949999809265137 C137.7030029296875,-12.949999809265137 137.7030029296875,12.949999809265137 137.7030029296875,12.949999809265137 C137.7030029296875,18.472999572753906 133.2259979248047,22.950000762939453 127.7030029296875,22.950000762939453z"/></g></g></g><g clip-path="url(#__lottie_element_331)" transform="matrix(1,0,0,1,0,0)" opacity="1" style="display: none;"><g transform="matrix(1,0,0,1,-35,-35.00001525878906)" opacity="1" style="display: block;"><g opacity="1" transform="matrix(1,0,0,1,250,272.4800109863281)"><path class="secondary" fill="rgb(232,57,47)" fill-opacity="1" d=" M119.47000122070312,-153.1699981689453 C119.47000122070312,-153.1699981689453 116.31999969482422,-91.44999694824219 116.31999969482422,-91.44999694824219 C116.31999969482422,-91.44999694824219 104.22000122070312,145.67999267578125 104.22000122070312,145.67999267578125 C103.94999694824219,151 99.55999755859375,155.1699981689453 94.23999786376953,155.1699981689453 C94.23999786376953,155.1699981689453 -94.23999786376953,155.1699981689453 -94.23999786376953,155.1699981689453 C-99.55999755859375,155.1699981689453 -103.94999694824219,151 -104.22000122070312,145.67999267578125 C-104.22000122070312,145.67999267578125 -116.31999969482422,-91.44999694824219 -116.31999969482422,-91.44999694824219 C-116.31999969482422,-91.44999694824219 -119.47000122070312,-153.1699981689453 -119.47000122070312,-153.1699981689453 C-119.47000122070312,-154.27000427246094 -118.56999969482422,-155.1699981689453 -117.47000122070312,-155.1699981689453 C-117.47000122070312,-155.1699981689453 117.47000122070312,-155.1699981689453 117.47000122070312,-155.1699981689453 C118.56999969482422,-155.1699981689453 119.47000122070312,-154.27000427246094 119.47000122070312,-153.1699981689453z"/></g><g opacity="1" transform="matrix(1,0,0,1,250,287.1470031738281)"><path stroke-linecap="round" stroke-linejoin="round" fill-opacity="0" class="tertiary" stroke="rgb(235,230,239)" stroke-opacity="1" stroke-width="7" d=" M-58.540000915527344,-77.9540023803711 C-58.540000915527344,-77.9540023803711 -58.540000915527344,77.9540023803711 -58.540000915527344,77.9540023803711 M0.12999999523162842,-77.9540023803711 C0.12999999523162842,-77.9540023803711 0.12999999523162842,77.9540023803711 0.12999999523162842,77.9540023803711 M58.540000915527344,-77.9540023803711 C58.540000915527344,-77.9540023803711 58.540000915527344,77.9540023803711 58.540000915527344,77.9540023803711"/></g><g opacity="0.6" transform="matrix(1,0,0,1,250,149.1699981689453)" style="mix-blend-mode: multiply;"><path class="secondary" fill="rgb(232,57,47)" fill-opacity="1" d=" M119.47000122070312,-29.860000610351562 C119.47000122070312,-29.860000610351562 116.31999969482422,31.860000610351562 116.31999969482422,31.860000610351562 C116.31999969482422,31.860000610351562 -116.31999969482422,32.86000061035156 -116.31999969482422,32.86000061035156 C-116.31999969482422,32.86000061035156 -119.47000122070312,-29.860000610351562 -119.47000122070312,-29.860000610351562 C-119.47000122070312,-30.959999084472656 -118.56999969482422,-31.860000610351562 -117.47000122070312,-31.860000610351562 C-117.47000122070312,-31.860000610351562 117.47000122070312,-31.860000610351562 117.47000122070312,-31.860000610351562 C118.56999969482422,-31.860000610351562 119.47000122070312,-30.959999084472656 119.47000122070312,-29.860000610351562z"/></g></g><g transform="matrix(1,0,0,1,-35.75,-35.024993896484375)" opacity="1" style="display: block;"><g opacity="1" transform="matrix(1,0,0,1,250,96.63999938964844)"><path stroke-linecap="round" stroke-linejoin="round" fill-opacity="0" class="secondary" stroke="rgb(232,57,47)" stroke-opacity="1" stroke-width="10" d=" M44.15599822998047,19.558000564575195 C44.15599822998047,-4.703000068664551 21.60300064086914,-22.288000106811523 0.41200000047683716,-22.288000106811523 C0.41200000047683716,-22.288000106811523 0.41200000047683716,-22.288000106811523 0.41200000047683716,-22.288000106811523 C-22.299999237060547,-22.288000106811523 -41.10499954223633,-5.421999931335449 -44.15599822998047,16.45199966430664 C-44.15599822998047,16.45199966430664 -44.15599822998047,22.288000106811523 -44.15599822998047,22.288000106811523 C-44.15599822998047,22.288000106811523 44.15599822998047,22.288000106811523 44.15599822998047,22.288000106811523 C44.15599822998047,22.288000106811523 44.15599822998047,19.558000564575195 44.15599822998047,19.558000564575195z"/></g><g opacity="1" transform="matrix(1,0,0,1,250,135.2480010986328)"><path class="secondary" fill="rgb(232,57,47)" fill-opacity="1" d=" M127.7030029296875,22.950000762939453 C127.7030029296875,22.950000762939453 -127.7030029296875,22.950000762939453 -127.7030029296875,22.950000762939453 C-133.2259979248047,22.950000762939453 -137.7030029296875,18.472999572753906 -137.7030029296875,12.949999809265137 C-137.7030029296875,12.949999809265137 -137.7030029296875,-12.949999809265137 -137.7030029296875,-12.949999809265137 C-137.7030029296875,-18.472999572753906 -133.2259979248047,-22.950000762939453 -127.7030029296875,-22.950000762939453 C-127.7030029296875,-22.950000762939453 127.7030029296875,-22.950000762939453 127.7030029296875,-22.950000762939453 C133.2259979248047,-22.950000762939453 137.7030029296875,-18.472999572753906 137.7030029296875,-12.949999809265137 C137.7030029296875,-12.949999809265137 137.7030029296875,12.949999809265137 137.7030029296875,12.949999809265137 C137.7030029296875,18.472999572753906 133.2259979248047,22.950000762939453 127.7030029296875,22.950000762939453z"/></g></g></g></g></svg>