<svg xmlns="http://www.w3.org/2000/svg" xmlns:xlink="http://www.w3.org/1999/xlink" viewBox="0 0 430 430" width="430" height="430" preserveAspectRatio="xMidYMid meet" style="width: 100%; height: 100%; transform: translate3d(0px, 0px, 0px); content-visibility: visible;"><defs><clipPath id="__lottie_element_522"><rect width="430" height="430" x="0" y="0"/></clipPath><clipPath id="__lottie_element_524"><path d="M0,0 L430,0 L430,430 L0,430z"/></clipPath></defs><g clip-path="url(#__lottie_element_522)"><g clip-path="url(#__lottie_element_524)" transform="matrix(1,0,0,1,0,0)" opacity="1" style="display: block;"><g transform="matrix(1,0,0,1,215.0019989013672,215.5019989013672)" opacity="1" style="display: block;"><g opacity="1" transform="matrix(1,0,0,1,0,0)"><path class="primary" fill="rgb(235,230,239)" fill-opacity="1" d=" M-116.67500305175781,-116.67500305175781 C-86.04100036621094,-147.3090057373047 -44.5890007019043,-164.66600036621094 -1.2680000066757202,-164.9980010986328 C90.59200286865234,-165.68800354003906 165.0019989013672,-90.38800048828125 165.0019989013672,1.472000002861023 C165.0019989013672,1.472000002861023 165.0019989013672,162.0019989013672 165.0019989013672,162.0019989013672 C165.0019989013672,162.79800415039062 164.68699645996094,163.56100463867188 164.12399291992188,164.12399291992188 C163.56100463867188,164.68699645996094 162.79800415039062,165.0019989013672 162.0019989013672,165.0019989013672 C162.0019989013672,165.0019989013672 1.472000002861023,165.0019989013672 1.472000002861023,165.0019989013672 C-90.38800048828125,165.0019989013672 -165.68800354003906,90.59200286865234 -164.9980010986328,-1.2680000066757202 C-164.66600036621094,-44.5890007019043 -147.3090057373047,-86.04100036621094 -116.67500305175781,-116.67500305175781z"/></g><g opacity="1" transform="matrix(1,0,0,1,-70,0)" style="mix-blend-mode: multiply;"><path class="primary" fill="rgb(235,230,239)" fill-opacity="1" d=" M-25.993999481201172,-112.15899658203125 C-54.26499938964844,-81.6520004272461 -69.97200012207031,-41.59299850463867 -69.97000122070312,0 C-69.97000122070312,0 -69.97000122070312,0 -69.97000122070312,0 C-69.97000122070312,43.76100158691406 -52.58599853515625,85.7300033569336 -21.64299964904785,116.6729965209961 C9.300000190734863,147.61599731445312 51.26900100708008,165 95.02999877929688,165 C95.02999877929688,165 69.97000122070312,165 69.97000122070312,165 C26.208999633789062,165 -15.760000228881836,147.61599731445312 -46.702999114990234,116.6729965209961 C-77.64600372314453,85.7300033569336 -95.02999877929688,43.76100158691406 -95.02999877929688,0 C-95.02999877929688,-43.76100158691406 -77.64600372314453,-85.7300033569336 -46.702999114990234,-116.6729965209961 C-15.760000228881836,-147.61599731445312 26.208999633789062,-165 69.97000122070312,-165 C74.1969985961914,-165 78.37300109863281,-164.84300231933594 82.5,-164.52999877929688 C41.027000427246094,-161.37100219726562 2.2769999504089355,-142.66600036621094 -25.993999481201172,-112.15899658203125z"/></g></g><g transform="matrix(1,0,0,1,215,215)" opacity="1" style="display: block;"><g opacity="1" transform="matrix(1,0,0,1,0,0)"/></g><g transform="matrix(1,0,0,1,220.47799682617188,195.5)" opacity="1" style="display: block;"><g opacity="1" transform="matrix(1,0,0,1,0,0)"><path class="secondary" fill="rgb(224,36,27)" fill-opacity="1" d=" M-0.5770000219345093,-40 C-7.571000099182129,-40 -12.086000442504883,-37.784000396728516 -14.762999534606934,-35.90299987792969 C-19.083999633789062,-32.86600112915039 -21.80900001525879,-27.73900032043457 -24.56599998474121,-23.131999969482422 C-25.41699981689453,-21.709999084472656 -27.273000717163086,-21.31999969482422 -28.659000396728516,-22.22800064086914 C-28.659000396728516,-22.22800064086914 -48.73500061035156,-35.37799835205078 -48.73500061035156,-35.37799835205078 C-50.12099838256836,-36.2859992980957 -50.5099983215332,-38.145999908447266 -49.61199951171875,-39.53900146484375 C-44.58000183105469,-47.34700012207031 -39.803001403808594,-54.972999572753906 -32.01300048828125,-60.448001861572266 C-24.979999542236328,-65.39099884033203 -14.543999671936035,-70 -0.5770000219345093,-70 C4.840000152587891,-70 10.220000267028809,-69.0530014038086 15.33899974822998,-67.2750015258789 C25.368000030517578,-63.79100036621094 34.39400100708008,-57.1150016784668 40.73400115966797,-48.106998443603516 C46.542999267578125,-39.854000091552734 50.095001220703125,-29.642000198364258 50.095001220703125,-18.13800048828125 C50.095001220703125,-8.192999839782715 47.117000579833984,0.49399998784065247 42.83000183105469,7.863999843597412 C37.86000061035156,16.409000396728516 31.128999710083008,23.18199920654297 25.239999771118164,28.093000411987305 C15.229999542236328,36.439998626708984 9.54800033569336,46.08000183105469 9.54800033569336,55 C9.54800033569336,55 9.54800033569336,67 9.54800033569336,67 C9.54800033569336,68.65699768066406 8.204999923706055,70 6.547999858856201,70 C6.547999858856201,70 -17.45199966430664,70 -17.45199966430664,70 C-19.108999252319336,70 -20.45199966430664,68.65699768066406 -20.45199966430664,67 C-20.45199966430664,67 -20.45199966430664,55 -20.45199966430664,55 C-20.45199966430664,41.75699996948242 -15.489999771118164,30.124000549316406 -8.557999610900879,20.53499984741211 C-4.2230000495910645,14.538999557495117 0.8830000162124634,9.342000007629395 6.0269999504089355,5.052000045776367 C14.776000022888184,-2.24399995803833 20.094999313354492,-10.197999954223633 20.094999313354492,-18.13800048828125 C20.094999313354492,-25.3700008392334 16.839000701904297,-31.284000396728516 12.23799991607666,-35.12900161743164 C8.51099967956543,-38.24300003051758 3.9010000228881836,-40 -0.5770000219345093,-40z"/></g></g><g transform="matrix(1,0,0,1,215.5,303)" opacity="1" style="display: block;"><g opacity="1" transform="matrix(1,0,0,1,0,0)"><path class="secondary" fill="rgb(224,36,27)" fill-opacity="1" d=" M14.550999641418457,9.722000122070312 C16.474000930786133,6.843999862670898 17.5,3.4609999656677246 17.5,0 C17.5,-4.640999794006348 15.656000137329102,-9.092000007629395 12.37399959564209,-12.37399959564209 C9.092000007629395,-15.656000137329102 4.640999794006348,-17.5 0,-17.5 C-3.4609999656677246,-17.5 -6.843999862670898,-16.474000930786133 -9.722000122070312,-14.550999641418457 C-12.600000381469727,-12.628000259399414 -14.843000411987305,-9.895000457763672 -16.167999267578125,-6.697000026702881 C-17.493000030517578,-3.499000072479248 -17.839000701904297,0.01899999938905239 -17.163999557495117,3.4140000343322754 C-16.48900032043457,6.809000015258789 -14.821000099182129,9.927000045776367 -12.37399959564209,12.37399959564209 C-9.927000045776367,14.821000099182129 -6.809000015258789,16.48900032043457 -3.4140000343322754,17.163999557495117 C-0.01899999938905239,17.839000701904297 3.499000072479248,17.493000030517578 6.697000026702881,16.167999267578125 C9.895000457763672,14.843000411987305 12.628000259399414,12.600000381469727 14.550999641418457,9.722000122070312z"/></g></g></g></g></svg>