<svg width="430" height="430" viewBox="0 0 430 430" fill="none" xmlns="http://www.w3.org/2000/svg">
<path d="M214.5 383.5C307.008 383.5 382 308.508 382 216C382 123.492 307.008 48.5 214.5 48.5C121.992 48.5 47 123.492 47 216C47 308.508 121.992 383.5 214.5 383.5Z" fill="#EBE6EF"/>
<g style="mix-blend-mode:multiply" opacity="0.5">
<path d="M306.32 356.36C286.441 369.247 264.059 377.78 240.647 381.399C217.234 385.018 193.321 383.641 170.478 377.358C147.636 371.075 126.382 360.029 108.114 344.945C89.8454 329.862 74.9763 311.082 64.484 289.842C53.9916 268.602 48.1136 245.381 47.2363 221.707C46.3589 198.032 50.5022 174.44 59.3937 152.481C68.2852 130.523 81.7235 110.694 98.8254 94.3001C115.927 77.9058 136.305 65.3167 158.62 57.3604C124.111 79.7552 99.0264 114.041 88.1263 153.709C77.2262 193.377 81.2698 235.666 99.4896 272.55C117.709 309.434 148.837 338.344 186.964 353.794C225.091 369.243 267.564 370.157 306.32 356.36Z" fill="#EBE6EF"/>
</g>
<path d="M115 190.375C115 189.339 115.839 188.5 116.875 188.5H313.125C314.161 188.5 315 189.339 315 190.375V239.75C315 240.786 314.161 241.625 313.125 241.625H116.875C115.839 241.625 115 240.786 115 239.75V190.375Z" fill="#F24C00"/>
<g style="mix-blend-mode:multiply" opacity="0.5">
<path d="M115 190.375C115 189.339 115.839 188.5 116.875 188.5H215V241.625H116.875C115.839 241.625 115 240.786 115 239.75V190.375Z" fill="#F24C00"/>
</g>
</svg>
