<svg xmlns="http://www.w3.org/2000/svg" width="430" height="430" style="width:100%;height:100%;transform:translate3d(0,0,0);content-visibility:visible" viewBox="0 0 430 430"><defs><clipPath id="d"><path d="M0 0h430v430H0z"/></clipPath><clipPath id="i"><path d="M0 0h430v430H0z"/></clipPath><clipPath id="g"><path d="M0 0h430v430H0z"/></clipPath><clipPath id="e"><path d="M0 0h430v430H0z"/></clipPath><path id="a" style="display:none"/><path id="b" fill="#08A88A" d="M25-100c1.036 0 1.875.839 1.875 1.875v71.875h71.25c1.036 0 1.875.839 1.875 1.875V25a1.874 1.874 0 0 1-1.875 1.875h-71.25v71.25A1.874 1.874 0 0 1 25 100h-49.375a1.874 1.874 0 0 1-1.875-1.875v-71.25h-71.875A1.874 1.874 0 0 1-100 25v-49.375c0-1.036.839-1.875 1.875-1.875h71.875v-71.875c0-1.036.839-1.875 1.875-1.875z" style="display:block" transform="rotate(-90 215 0)"/><path id="c" class="primary" style="display:none"/><mask id="j" mask-type="alpha"><use xmlns:ns1="http://www.w3.org/1999/xlink" ns1:href="#a"/></mask><mask id="h" mask-type="alpha"><use xmlns:ns2="http://www.w3.org/1999/xlink" ns2:href="#b"/></mask><mask id="f" mask-type="alpha"><use xmlns:ns3="http://www.w3.org/1999/xlink" ns3:href="#c"/></mask></defs><g clip-path="url(#d)"><g clip-path="url(#e)" style="display:none"><path class="secondary" style="display:none"/><path class="secondary" style="mix-blend-mode:multiply;display:none"/><path class="primary" style="display:none"/><g mask="url(#f)" style="display:none"><path class="primary"/><path class="primary" style="mix-blend-mode:multiply"/></g></g><g clip-path="url(#g)" style="display:block"><path fill="#EBE6EE" d="M0 167.5c92.508 0 167.5-74.992 167.5-167.5S92.508-167.5 0-167.5-167.5-92.508-167.5 0-92.508 167.5 0 167.5" class="secondary" style="display:block" transform="rotate(-90 215.5 0)"/><g opacity=".5" style="mix-blend-mode:multiply;display:block"><path fill="#EBE6EE" d="M240.647 380.898a167.9 167.9 0 0 0 65.673-25.039A167.888 167.888 0 0 1 88.127 153.208a167.9 167.9 0 0 1 70.493-96.349A167.88 167.88 0 0 0 47.237 221.206a167.877 167.877 0 0 0 193.41 159.692" class="secondary" opacity="1"/></g><path fill="#E0241B" d="M25-100c1.036 0 1.875.839 1.875 1.875v71.875h71.25c1.036 0 1.875.839 1.875 1.875V25a1.874 1.874 0 0 1-1.875 1.875h-71.25v71.25A1.874 1.874 0 0 1 25 100h-49.375a1.874 1.874 0 0 1-1.875-1.875v-71.25h-71.875A1.874 1.874 0 0 1-100 25v-49.375c0-1.036.839-1.875 1.875-1.875h71.875v-71.875c0-1.036.839-1.875 1.875-1.875z" class="primary" style="display:block" transform="rotate(-90 215 0)"/><g fill="#E0241B" mask="url(#h)" style="display:block"><path d="M213.5 24.5v386H28v-386z" class="primary"/><path fill-opacity=".5" d="M92.75-193v386h-185.5v-386z" class="primary" style="mix-blend-mode:multiply" transform="translate(120.75 217.5)"/></g></g><g clip-path="url(#i)" style="display:none"><path class="secondary" style="display:none"/><path class="secondary" style="mix-blend-mode:multiply;display:none"/><path class="primary" style="display:none"/><g mask="url(#j)" style="display:none"><path class="primary"/><path class="primary" style="mix-blend-mode:multiply"/></g></g></g></svg>